<svg width="79.996582" height="79.999512" viewBox="0 0 79.9966 79.9995" fill="none" xmlns="http://www.w3.org/2000/svg" xmlns:xlink="http://www.w3.org/1999/xlink">
	<desc>
			Created with Pixso.
	</desc>
	<defs/>
	<g opacity="0.300000">
		<path id="Ellipse 6" d="M77.95 27.42C75.1 18.8 69.32 11.09 60.99 5.95C53.26 1.19 43.87 -1 34.2 0.43C25.21 1.73 16.61 6.09 10.12 13.41C4.07 20.19 0.29 29.05 0.01 38.83C-0.26 47.91 2.54 57.13 8.61 64.79C14.24 71.92 22.31 77.19 31.9 79.16C40.79 81 50.36 79.85 58.96 75.2C66.96 70.89 73.55 63.86 77.15 54.76C80.51 46.32 81.03 36.7 77.95 27.42ZM35.78 11.21C42.31 10.25 49.21 11.5 55.26 15.24C60.88 18.71 65.37 24.09 67.6 30.85C69.68 37.12 69.65 44.13 67.02 50.74C64.58 56.88 60.05 62.23 53.79 65.6C47.97 68.74 41.07 69.93 34.1 68.48C27.63 67.15 21.58 63.62 17.17 58.03C13.07 52.85 10.7 46.26 10.91 39.14C11.1 32.54 13.53 25.97 18.26 20.65C22.65 15.72 28.73 12.24 35.78 11.21Z" fill="#2F2E30" fill-opacity="1.000000" fill-rule="evenodd"/>
	</g>
</svg>
