<svg width="24.000000" height="24.000000" viewBox="0 0 24 24" fill="none" xmlns="http://www.w3.org/2000/svg" xmlns:xlink="http://www.w3.org/1999/xlink">
	<desc>
			Created with Pixso.
	</desc>
	<defs>
		<clipPath id="clip9_1226">
			<rect id="Icon / Facebook" width="24.000000" height="24.000000" fill="white" fill-opacity="0"/>
		</clipPath>
	</defs>
	<rect id="Icon / Facebook" width="24.000000" height="24.000000" fill="#FFFFFF" fill-opacity="0"/>
	<g clip-path="url(#clip9_1226)">
		<path id="Vector" d="M22 12.3C22 6.74 17.52 2.24 12 2.24C6.47 2.24 2 6.74 2 12.3C2 17.32 5.65 21.48 10.43 22.24L10.43 15.21L7.89 15.21L7.89 12.3L10.43 12.3L10.43 10.08C10.43 7.56 11.93 6.17 14.21 6.17C15.3 6.17 16.45 6.36 16.45 6.36L16.45 8.84L15.19 8.84C13.95 8.84 13.56 9.62 13.56 10.41L13.56 12.3L16.33 12.3L15.89 15.21L13.56 15.21L13.56 22.24C18.34 21.48 22 17.32 22 12.3Z" fill="#FFFFFF" fill-opacity="1.000000" fill-rule="nonzero"/>
	</g>
</svg>
