<svg width="24.000000" height="24.000000" viewBox="0 0 24 24" fill="none" xmlns="http://www.w3.org/2000/svg" xmlns:xlink="http://www.w3.org/1999/xlink">
	<desc>
			Created with Pixso.
	</desc>
	<defs>
		<clipPath id="clip9_1229">
			<rect id="Icon / LinkedIn" width="24.000000" height="24.000000" fill="white" fill-opacity="0"/>
		</clipPath>
	</defs>
	<rect id="Icon / LinkedIn" width="24.000000" height="24.000000" fill="#FFFFFF" fill-opacity="0"/>
	<g clip-path="url(#clip9_1229)">
		<path id="Vector" d="M4.5 3.24C3.67 3.24 3 3.91 3 4.74L3 19.74C3 20.57 3.67 21.24 4.5 21.24L19.5 21.24C20.32 21.24 21 20.57 21 19.74L21 4.74C21 3.91 20.32 3.24 19.5 3.24L4.5 3.24ZM8.52 7.24C8.52 8.2 7.81 8.79 6.96 8.78C6.16 8.78 5.46 8.14 5.46 7.24C5.47 6.4 6.13 5.72 7 5.74C7.88 5.76 8.52 6.4 8.52 7.24ZM12.27 10L9.75 10L9.75 10L9.75 18.56L12.42 18.56L12.42 18.36C12.42 17.98 12.42 17.6 12.42 17.22C12.42 16.21 12.41 15.19 12.42 14.18C12.42 13.93 12.43 13.68 12.5 13.44C12.73 12.56 13.52 12 14.4 12.14C14.97 12.22 15.34 12.55 15.5 13.08C15.6 13.42 15.64 13.78 15.64 14.12C15.66 15.17 15.65 16.22 15.65 17.27C15.65 17.64 15.65 18.01 15.65 18.38L15.65 18.56L18.32 18.56L18.32 18.35C18.32 17.9 18.32 17.45 18.32 17C18.32 15.87 18.32 14.74 18.32 13.61C18.33 13.1 18.27 12.59 18.15 12.1C17.96 11.37 17.57 10.76 16.94 10.32C16.5 10.01 16.01 9.81 15.46 9.78C15.4 9.78 15.34 9.78 15.27 9.77C14.99 9.76 14.71 9.74 14.44 9.8C13.68 9.95 13 10.3 12.5 10.92C12.44 10.99 12.38 11.06 12.29 11.17L12.27 11.19L12.27 10ZM5.68 18.56L8.33 18.56L8.33 10L5.68 10L5.68 18.56Z" fill="#FFFFFF" fill-opacity="1.000000" fill-rule="evenodd"/>
	</g>
</svg>
