<svg width="32.000000" height="32.000000" viewBox="0 0 24 24" fill="none" xmlns="http://www.w3.org/2000/svg" xmlns:xlink="http://www.w3.org/1999/xlink">
	<defs>
		<clipPath id="clip9_327">
			<rect id="Frame" width="24.000000" height="24.000000" fill="white" fill-opacity="0"/>
		</clipPath>
	</defs>
	<rect id="Frame" width="24.000000" height="24.000000" fill="#FFFFFF" fill-opacity="0"/>
	<g id="cartSvg" clip-path="url(#clip9_327)">
		<path id="Vector" d="M2.25 3L3.63 3C4.14 3 4.59 3.34 4.72 3.83L5.1 5.27L7.5 14.25M5.1 5.27C10.67 5.11 16.24 5.73 21.64 7.11C20.81 9.56 19.83 11.95 18.71 14.25L7.5 14.25C6.7 14.25 5.94 14.56 5.37 15.12C4.81 15.69 4.5 16.45 4.5 17.25L20.25 17.25M5.78 20.78C5.63 20.92 5.44 21 5.25 21C5.05 21 4.86 20.92 4.71 20.78C4.57 20.63 4.5 20.44 4.5 20.25C4.5 20.05 4.57 19.86 4.71 19.71C4.86 19.57 5.05 19.5 5.25 19.5C5.44 19.5 5.63 19.57 5.78 19.71C5.92 19.86 6 20.05 6 20.25C6 20.44 5.92 20.63 5.78 20.78ZM18.53 20.78C18.38 20.92 18.19 21 18 21C17.8 21 17.61 20.92 17.46 20.78C17.32 20.63 17.25 20.44 17.25 20.25C17.25 20.05 17.32 19.86 17.46 19.71C17.61 19.57 17.8 19.5 18 19.5C18.19 19.5 18.38 19.57 18.53 19.71C18.67 19.86 18.75 20.05 18.75 20.25C18.75 20.44 18.67 20.63 18.53 20.78Z" stroke="#181818" stroke-opacity="1.000000" stroke-width="1.500000" stroke-linejoin="round" stroke-linecap="round"/>
	</g>
</svg>
