<svg width="42.000000" height="42.000000" viewBox="0 0 24 24" fill="none" xmlns="http://www.w3.org/2000/svg" xmlns:xlink="http://www.w3.org/1999/xlink">
	<defs>
		<clipPath id="clip9_1227">
			<rect id="IconInstagram" width="24.000000" height="24.000000" fill="white" fill-opacity="0"/>
		</clipPath>
	</defs>
	<rect id="IconInstagram" width="24.000000" height="24.000000" fill="#FFFFFF" fill-opacity="0"/>
	<g clip-path="url(#clip9_1227)">
		<path id="Vector" d="M16 3.24L8 3.24C5.23 3.24 3 5.48 3 8.24L3 16.24C3 19 5.23 21.24 8 21.24L16 21.24C18.76 21.24 21 19 21 16.24L21 8.24C21 5.48 18.76 3.24 16 3.24ZM19.25 16.24C19.24 18.03 17.79 19.48 16 19.49L8 19.49C6.2 19.48 4.75 18.03 4.75 16.24L4.75 8.24C4.75 6.45 6.2 4.99 8 4.99L16 4.99C17.79 4.99 19.24 6.45 19.25 8.24L19.25 16.24ZM16.75 8.49C17.3 8.49 17.75 8.04 17.75 7.49C17.75 6.94 17.3 6.49 16.75 6.49C16.19 6.49 15.75 6.94 15.75 7.49C15.75 8.04 16.19 8.49 16.75 8.49ZM12 7.74C9.51 7.74 7.5 9.75 7.5 12.24C7.5 14.72 9.51 16.74 12 16.74C14.48 16.74 16.5 14.72 16.5 12.24C16.5 11.04 16.02 9.9 15.18 9.05C14.34 8.21 13.19 7.74 12 7.74ZM9.25 12.24C9.25 13.76 10.48 14.99 12 14.99C13.51 14.99 14.75 13.76 14.75 12.24C14.75 10.72 13.51 9.49 12 9.49C10.48 9.49 9.25 10.72 9.25 12.24Z" fill="#FFFFFF" fill-opacity="1.000000" fill-rule="evenodd"/>
	</g>
</svg>
